name GIL01_fast5EmgEnv.mot
datacolumns 51
datarows 10
range 0.10092595 0.10925929
endheader
                time	   rect_fem_l_emgRec	   rect_fem_l_emgEnv	   rect_fem_l_emgAve	   rect_fem_l_emgSDp	   rect_fem_l_emgSDm	   rect_fem_r_emgRec	   rect_fem_r_emgEnv	   rect_fem_r_emgAve	   rect_fem_r_emgSDp	   rect_fem_r_emgSDm	   med_hams_l_emgRec	   med_hams_l_emgEnv	   med_hams_l_emgAve	   med_hams_l_emgSDp	   med_hams_l_emgSDm	   med_hams_r_emgRec	   med_hams_r_emgEnv	   med_hams_r_emgAve	   med_hams_r_emgSDp	   med_hams_r_emgSDm	   lat_hams_l_emgRec	   lat_hams_l_emgEnv	   lat_hams_l_emgAve	   lat_hams_l_emgSDp	   lat_hams_l_emgSDm	   lat_hams_r_emgRec	   lat_hams_r_emgEnv	   lat_hams_r_emgAve	   lat_hams_r_emgSDp	   lat_hams_r_emgSDm	    tib_ant_l_emgRec	    tib_ant_l_emgEnv	    tib_ant_l_emgAve	    tib_ant_l_emgSDp	    tib_ant_l_emgSDm	    tib_ant_r_emgRec	    tib_ant_r_emgEnv	    tib_ant_r_emgAve	    tib_ant_r_emgSDp	    tib_ant_r_emgSDm	    gas_sol_l_emgRec	    gas_sol_l_emgEnv	    gas_sol_l_emgAve	    gas_sol_l_emgSDp	    gas_sol_l_emgSDm	    gas_sol_r_emgRec	    gas_sol_r_emgEnv	    gas_sol_r_emgAve	    gas_sol_r_emgSDp	    gas_sol_r_emgSDm	
          0.10092595	          0.02399937	          0.05915998	          0.33764258	          0.47032329	          0.20496187	          0.18971034	          0.70677268	          0.59746188	          0.72889371	          0.46603005	          0.00239667	          0.01158232	          0.08250095	          0.10377285	          0.06122905	          0.25803416	          0.35633580	          0.25964606	          0.35671293	          0.16257919	          0.00153222	          0.01623337	          0.07096304	          0.12998415	          0.01194193	          0.05865722	          0.18278600	          0.27298439	          0.34803069	          0.19793808	          0.05809128	          0.26425612	          0.35799804	          0.52067637	          0.19531971	          0.04705204	          0.29841413	          0.43508604	          0.59934285	          0.27082923	          0.00189418	          0.01347981	          0.02346893	          0.04308066	          0.00385719	          0.06510453	          0.10956615	          0.06497331	          0.09535322	          0.03459340	
          0.10185187	          0.04148687	          0.05888386	          0.33701685	          0.46926838	          0.20476532	          0.17214085	          0.69482104	          0.58975035	          0.72082672	          0.45867398	          0.00366753	          0.01144724	          0.08201305	          0.10304493	          0.06098117	          0.14355254	          0.35200777	          0.25756171	          0.35370214	          0.16142129	          0.00075513	          0.01610068	          0.07029711	          0.12812510	          0.01246913	          0.00142858	          0.17868882	          0.27363002	          0.34855136	          0.19870868	          0.08360815	          0.27405399	          0.36075559	          0.52394204	          0.19756915	          0.05041667	          0.28867745	          0.43290678	          0.59781982	          0.26799373	          0.01055811	          0.01347292	          0.02321310	          0.04256276	          0.00386343	          0.05767120	          0.10846050	          0.06507618	          0.09591628	          0.03423608	
          0.10277780	          0.05205437	          0.05860081	          0.33634099	          0.46814889	          0.20453310	          0.13599789	          0.68283501	          0.58192974	          0.71262781	          0.45123167	          0.00000806	          0.01132706	          0.08148144	          0.10227711	          0.06068577	          0.00171550	          0.34764949	          0.25547278	          0.35069183	          0.16025373	          0.00294107	          0.01597288	          0.06962098	          0.12627104	          0.01297093	          0.03531142	          0.17463048	          0.27429828	          0.34911313	          0.19948343	          0.10221118	          0.28393007	          0.36348635	          0.52716798	          0.19980472	          0.03582233	          0.27930841	          0.43074420	          0.59632185	          0.26516655	          0.01223374	          0.01346938	          0.02296135	          0.04205159	          0.00387110	          0.04892847	          0.10732888	          0.06519281	          0.09650514	          0.03388049	
          0.10370373	          0.05234229	          0.05831197	          0.33561549	          0.46696545	          0.20426552	          0.08781953	          0.67083286	          0.57400537	          0.70430264	          0.44370809	          0.00166738	          0.01122132	          0.08090614	          0.10146944	          0.06034283	          0.08215196	          0.34326896	          0.25338036	          0.34768342	          0.15907729	          0.00473375	          0.01584963	          0.06893460	          0.12442191	          0.01344730	          0.02368518	          0.17061958	          0.27499059	          0.34971847	          0.20026270	          0.08205514	          0.29387471	          0.36618984	          0.53035372	          0.20202595	          0.16678040	          0.27032041	          0.42859891	          0.59484883	          0.26234899	          0.01106881	          0.01346875	          0.02271362	          0.04154706	          0.00388018	          0.04200529	          0.10617377	          0.06532344	          0.09711972	          0.03352716	
          0.10462965	          0.04405149	          0.05801843	          0.33484060	          0.46571845	          0.20396274	          0.16535855	          0.65883254	          0.56598204	          0.69585641	          0.43610768	          0.00513827	          0.01112953	          0.08028717	          0.10062201	          0.05995232	          0.19718983	          0.33887416	          0.25128567	          0.34467838	          0.15789296	          0.00889841	          0.01573059	          0.06823798	          0.12257770	          0.01389827	          0.01432353	          0.16666464	          0.27570823	          0.35036971	          0.20104675	          0.04304001	          0.30387813	          0.36886540	          0.53349867	          0.20423213	          0.02668385	          0.26172611	          0.42647123	          0.59340030	          0.25954217	          0.00826905	          0.01347063	          0.02246986	          0.04104908	          0.00389064	          0.02879300	          0.10499761	          0.06546826	          0.09775990	          0.03317662	
          0.10555558	          0.03886447	          0.05772117	          0.33401659	          0.46440832	          0.20362486	          0.29291717	          0.64685165	          0.55786479	          0.68729457	          0.42843500	          0.00501574	          0.01105118	          0.07962456	          0.09973489	          0.05951422	          0.11497667	          0.33447301	          0.24918981	          0.34167811	          0.15670151	          0.01474422	          0.01561544	          0.06753109	          0.12073830	          0.01432389	          0.00485962	          0.16277412	          0.27645269	          0.35106941	          0.20183598	          0.04328609	          0.31393044	          0.37151262	          0.53660245	          0.20642279	          0.35926174	          0.25353744	          0.42436168	          0.59197602	          0.25674734	          0.00676818	          0.01347464	          0.02222999	          0.04055753	          0.00390244	          0.01420632	          0.10380274	          0.06562752	          0.09842560	          0.03282945	
          0.10648151	          0.01781657	          0.05742113	          0.33314404	          0.46303584	          0.20325224	          0.17331474	          0.63490740	          0.54965878	          0.67862278	          0.42069477	          0.00201167	          0.01098575	          0.07891840	          0.09880822	          0.05902857	          0.03539542	          0.33007333	          0.24709405	          0.33868413	          0.15550397	          0.01112518	          0.01550385	          0.06681392	          0.11890370	          0.01472415	          0.01885641	          0.15895639	          0.27722526	          0.35181990	          0.20263061	          0.05873873	          0.32402164	          0.37413096	          0.53966458	          0.20859735	          0.13869776	          0.24576556	          0.42227054	          0.59057547	          0.25396560	          0.00467605	          0.01348042	          0.02199395	          0.04007232	          0.00391559	          0.01294371	          0.10259147	          0.06580144	          0.09911670	          0.03248619	
          0.10740743	          0.01797254	          0.05711916	          0.33222318	          0.46160132	          0.20284504	          0.03229980	          0.62301660	          0.54136968	          0.66984710	          0.41289225	          0.00386133	          0.01093273	          0.07816885	          0.09784222	          0.05849549	          0.00835826	          0.32568285	          0.24499962	          0.33569804	          0.15430120	          0.00580882	          0.01539552	          0.06608650	          0.11707389	          0.01509911	          0.02218303	          0.15521971	          0.27802739	          0.35262378	          0.20343099	          0.05303408	          0.33414167	          0.37671986	          0.54268445	          0.21075527	          0.24952008	          0.23842083	          0.42019832	          0.58919834	          0.25119831	          0.00247014	          0.01348763	          0.02176170	          0.03959337	          0.00393002	          0.04841894	          0.10136602	          0.06599029	          0.09983315	          0.03214744	
          0.10833336	          0.03735506	          0.05681602	          0.33125442	          0.46010540	          0.20240344	          0.05418436	          0.61119558	          0.53300226	          0.66097274	          0.40503177	          0.00222128	          0.01089158	          0.07737600	          0.09683700	          0.05791500	          0.10587529	          0.32130914	          0.24290760	          0.33272112	          0.15309408	          0.00824067	          0.01529017	          0.06534883	          0.11524882	          0.01544885	          0.00481227	          0.15157226	          0.27886051	          0.35348351	          0.20423751	          0.07480290	          0.34428041	          0.37927893	          0.54566176	          0.21289609	          0.12027695	          0.23151279	          0.41814539	          0.58784407	          0.24844670	          0.00605116	          0.01349596	          0.02153316	          0.03912058	          0.00394574	          0.06749405	          0.10012854	          0.06619428	          0.10057479	          0.03181377	
          0.10925929	          0.05394616	          0.05651241	          0.33023822	          0.45854869	          0.20192775	          0.11100663	          0.59946019	          0.52456260	          0.65200636	          0.39711884	          0.00156348	          0.01086174	          0.07654008	          0.09579287	          0.05728730	          0.21812832	          0.31695961	          0.24081939	          0.32975516	          0.15188363	          0.01854354	          0.01518750	          0.06460096	          0.11342852	          0.01577340	          0.03182443	          0.14802209	          0.27972609	          0.35440170	          0.20505048	          0.12504661	          0.35442772	          0.38180751	          0.54859588	          0.21501914	          0.15524135	          0.22505016	          0.41611207	          0.58651228	          0.24571185	          0.00899197	          0.01350512	          0.02130830	          0.03865388	          0.00396272	          0.07747455	          0.09888111	          0.06641367	          0.10134154	          0.03148580	
